# xmcd CD database file
#
# Track frame offsets:
#	187
#	14892
#	31257
#	52605
#	66200
#	82770
#	101017
#	116525
#	130350
#	147457
#	167340
#	193230
#
# Disc length: 2666 seconds
#
# Revision: 0
# Processed by: cddbd v1.5.2PL0 Copyright (c) Steve Scherf et al.
# Submitted via: CDex 1.70beta2
#
DISCID=9f0a680c
DTITLE=Lester Young - Masters of Jazz Vol. 7
DYEAR=1994
DGENRE=Jazz
TTITLE0=Lester Leaps In
TTITLE1=These Foolish Things
TTITLE2=Three Little Words
TTITLE3=Pennies From Heaven
TTITLE4=Polka Dots And Moonbeams
TTITLE5=Indiana
TTITLE6=Jumpin' With Symphony Sid
TTITLE7=D.B. Blues
TTITLE8=A Ghost Of A Chance
TTITLE9=Up And At'em
TTITLE10=Blue In G (Lester's Mop Mop Blues)
TTITLE11=Tea For Two
EXTD=YEAR: 1994
EXTT0=
EXTT1=
EXTT2=
EXTT3=
EXTT4=
EXTT5=
EXTT6=
EXTT7=
EXTT8=
EXTT9=
EXTT10=
EXTT11=
PLAYORDER=
